<?xml version="1.0" encoding="UTF-8"?>
<svg version="1.1" xmlns="http://www.w3.org/2000/svg" width="1080" height="1080">
<path d="M0 0 C27.9166719 7.20674954 54.14355532 19.96563611 78.11914062 35.83007812 C80.0288148 37.01792323 81.97396192 38.02633242 84 39 C84.44988281 38.49210937 84.89976562 37.98421875 85.36328125 37.4609375 C92.29536985 30.04263027 100.35588776 24.49742017 110.65234375 23.7265625 C121.14269232 23.3763107 129.77138111 24.6528434 138.97949219 30.19042969 C144.90165961 33.71735078 150.54544163 35.40036951 157.25 36.875 C165.53763484 38.82309717 173.66917425 41.00197319 181.75 43.6875 C182.62430664 43.97286621 183.49861328 44.25823242 184.39941406 44.55224609 C185.21120117 44.82762207 186.02298828 45.10299805 186.859375 45.38671875 C187.56545898 45.62608154 188.27154297 45.86544434 188.99902344 46.11206055 C191.27955816 47.12405479 193.06043416 48.44143973 195 50 C194.05906494 49.92894043 193.11812988 49.85788086 192.14868164 49.78466797 C172.81762802 48.36711259 154.97496281 47.10055665 136 52 C136.04640625 52.78761719 136.0928125 53.57523437 136.140625 54.38671875 C136.66077753 70.08417902 131.1189063 83.82484154 120.61328125 95.44140625 C119 97 119 97 116 99 C115.55037621 101.3355232 115.55037621 101.3355232 115.63671875 104.05859375 C115.63736328 105.08533203 115.63800781 106.11207031 115.63867188 107.16992188 C115.65478516 108.24822266 115.67089844 109.32652344 115.6875 110.4375 C115.68427734 111.48099609 115.68105469 112.52449219 115.67773438 113.59960938 C115.74803338 123.89521821 116.26320075 133.76397085 123 142 C127.45023872 146.33613003 131.64170623 147.72486573 137.75 148.4375 C143.11778301 148.28266011 147.61303507 145.96353482 152 143 C158.2451794 135.66191421 159.07601295 126.65906604 159.20532227 117.33032227 C159.22526749 116.04952286 159.24521271 114.76872345 159.26576233 113.44911194 C159.28274013 112.07154456 159.29961917 110.69397596 159.31640625 109.31640625 C159.33700688 107.8915094 159.3580041 106.46661823 159.37937927 105.04173279 C159.43427921 101.31166214 159.48382838 97.58153931 159.53222656 93.85137939 C159.58267753 90.03694069 159.63823978 86.22257672 159.69335938 82.40820312 C159.80054792 74.93886391 159.90160522 67.46946118 160 60 C166.6 60 173.2 60 180 60 C180.09081899 69.42386774 180.16401234 78.8474389 180.20724869 88.27164745 C180.228013 92.64895742 180.25612313 97.02594924 180.30175781 101.40307617 C180.34561827 105.63712446 180.3692207 109.87086917 180.37950897 114.10512733 C180.38682899 115.71047041 180.4011205 117.31579923 180.42292023 118.92101097 C180.61679069 133.80545614 178.40607515 147.84848045 167.9296875 159.25390625 C158.66917572 168.01428586 148.50626764 170.60073311 136 171 C125.32835396 170.64269042 115.27991384 167.11916139 107.1875 160 C97.82175942 149.69309432 94.63287791 136.50296289 94.875 123 C94.88402344 122.03449219 94.89304687 121.06898438 94.90234375 120.07421875 C94.92569365 117.71587901 94.95843953 115.35807714 95 113 C79.32267348 122.68103521 60.5892518 134.38469681 55.3515625 153.34765625 C54.7657646 161.0327668 59.1988632 168.30405561 63.6875 174.2265625 C71.96967119 183.18701495 83.63967769 188.86614343 94.21289062 194.67529297 C100.17423843 197.99447999 105.6095752 201.80871631 111 206 C110.67 207.32 110.34 208.64 110 210 C105.71 210.99 101.42 211.98 97 213 C97.99 214.32 98.98 215.64 100 217 C99.6875 220.25 99.6875 220.25 99 223 C91.65276257 225.44907914 80.327028 220.43324874 73.5625 217.3125 C58.78953668 209.25814483 49.58007493 193.80927709 44.7421875 178.14453125 C44 175 44 175 44 171 C38.39 171 32.78 171 27 171 C26.67 156.15 26.34 141.3 26 126 C23.36 131.28 20.72 136.56 18 142 C17.67 142 17.34 142 17 142 C16.37627087 133.26779216 18.04467646 122.91064707 22 115 C20.02 115 18.04 115 16 115 C16 108.07 16 101.14 16 94 C18.3925 93.835 20.785 93.67 23.25 93.5 C23.99668945 93.44779297 24.74337891 93.39558594 25.51269531 93.34179688 C28.68848053 93.12654731 31.81469975 93 35 93 C34.11441406 92.74347656 33.22882813 92.48695313 32.31640625 92.22265625 C1.9296779 82.83154457 -25.43412474 61.21917125 -42 34 C-42 33.34 -42 32.68 -42 32 C-29.20948438 29.64715463 -16.87627855 28.46043213 -3.875 28.5625 C-3.03171143 28.56587372 -2.18842285 28.56924744 -1.31958008 28.57272339 C28.71407113 28.74570058 55.67237032 35.72329355 83 48 C68.06379571 39.46779004 52.8401234 33.71956249 36.25 29.25 C35.46834473 29.0344043 34.68668945 28.81880859 33.88134766 28.59667969 C30.0924247 27.60288981 26.56136615 26.89714578 22.640625 26.765625 C14.50322357 26.34570331 14.50322357 26.34570331 11 24 C5.96806136 17.8809833 0 8.10181121 0 0 Z M84 49 C84.33 49.66 84.66 50.32 85 51 C85.66 50.67 86.32 50.34 87 50 C86.01 49.67 85.02 49.34 84 49 Z " fill="#26A7A4" transform="translate(633,428)"/>
<path d="M0 0 C8.88964577 1.26486146 17.38155158 3.31446719 26 5.8125 C27.77117187 6.3084668 27.77117187 6.3084668 29.578125 6.81445312 C37.30394579 9.03094686 44.65414015 11.73993834 52 15 C52 15.33 52 15.66 52 16 C51.05906494 15.92894043 50.11812988 15.85788086 49.14868164 15.78466797 C29.81762802 14.36711259 11.97496281 13.10055665 -7 18 C-6.95359375 18.78761719 -6.9071875 19.57523437 -6.859375 20.38671875 C-6.33922247 36.08417902 -11.8810937 49.82484154 -22.38671875 61.44140625 C-24 63 -24 63 -27 65 C-27.44962379 67.3355232 -27.44962379 67.3355232 -27.36328125 70.05859375 C-27.36263672 71.08533203 -27.36199219 72.11207031 -27.36132812 73.16992188 C-27.34521484 74.24822266 -27.32910156 75.32652344 -27.3125 76.4375 C-27.31733398 78.00274414 -27.31733398 78.00274414 -27.32226562 79.59960938 C-27.25196662 89.89521821 -26.73679925 99.76397085 -20 108 C-15.54976128 112.33613003 -11.35829377 113.72486573 -5.25 114.4375 C0.11778301 114.28266011 4.61303507 111.96353482 9 109 C15.2451794 101.66191421 16.07601295 92.65906604 16.20532227 83.33032227 C16.22526749 82.04952286 16.24521271 80.76872345 16.26576233 79.44911194 C16.28274013 78.07154456 16.29961917 76.69397596 16.31640625 75.31640625 C16.33700688 73.8915094 16.3580041 72.46661823 16.37937927 71.04173279 C16.43427921 67.31166214 16.48382838 63.58153931 16.53222656 59.85137939 C16.58267753 56.03694069 16.63823978 52.22257672 16.69335938 48.40820312 C16.80054792 40.93886391 16.90160522 33.46946118 17 26 C23.6 26 30.2 26 37 26 C37.09081899 35.42386774 37.16401234 44.8474389 37.20724869 54.27164745 C37.228013 58.64895742 37.25612313 63.02594924 37.30175781 67.40307617 C37.34561827 71.63712446 37.3692207 75.87086917 37.37950897 80.10512733 C37.38682899 81.71047041 37.4011205 83.31579923 37.42292023 84.92101097 C37.61679069 99.80545614 35.40607515 113.84848045 24.9296875 125.25390625 C15.66917572 134.01428586 5.50626764 136.60073311 -7 137 C-17.67164604 136.64269042 -27.72008616 133.11916139 -35.8125 126 C-45.17824058 115.69309432 -48.36712209 102.50296289 -48.125 89 C-48.11597656 88.03449219 -48.10695313 87.06898438 -48.09765625 86.07421875 C-48.07430635 83.71587901 -48.04156047 81.35807714 -48 79 C-63.67732652 88.68103521 -82.4107482 100.38469681 -87.6484375 119.34765625 C-88.2342354 127.0327668 -83.8011368 134.30405561 -79.3125 140.2265625 C-71.03032881 149.18701495 -59.36032231 154.86614343 -48.78710938 160.67529297 C-42.82576157 163.99447999 -37.3904248 167.80871631 -32 172 C-32.33 173.32 -32.66 174.64 -33 176 C-37.29 176.99 -41.58 177.98 -46 179 C-44.515 180.98 -44.515 180.98 -43 183 C-43.3125 186.25 -43.3125 186.25 -44 189 C-51.34723743 191.44907914 -62.672972 186.43324874 -69.4375 183.3125 C-84.21046332 175.25814483 -93.41992507 159.80927709 -98.2578125 144.14453125 C-99 141 -99 141 -99 137 C-104.61 137 -110.22 137 -116 137 C-116.33 122.15 -116.66 107.3 -117 92 C-119.64 97.28 -122.28 102.56 -125 108 C-126.1268155 103.49273801 -126.1268155 103.49273801 -124.19140625 99.98828125 C-123.77818115 99.23458252 -123.36495605 98.48088379 -122.93920898 97.7043457 C-122.48489502 96.91503662 -122.03058105 96.12572754 -121.5625 95.3125 C-121.10238525 94.50321045 -120.64227051 93.6939209 -120.16821289 92.86010742 C-114.72867647 83.51675969 -108.1611748 75.91104847 -99 70 C-98.34 70 -97.68 70 -97 70 C-97.18175781 70.86165771 -97.18175781 70.86165771 -97.3671875 71.74072266 C-97.91764355 74.36756242 -98.45888816 76.99622018 -99 79.625 C-99.19078125 80.52863281 -99.3815625 81.43226563 -99.578125 82.36328125 C-100.52210398 86.98203556 -101.25214768 91.25647172 -101 96 C-100.52691406 95.03320312 -100.05382812 94.06640625 -99.56640625 93.0703125 C-95.32342785 84.62675287 -90.84288973 77.64197587 -84 71 C-83.32582031 70.31679688 -82.65164063 69.63359375 -81.95703125 68.9296875 C-71.09421118 58.53561951 -56.61094592 52.07296143 -43.45141602 45.13623047 C-25.88314073 35.81679173 -11.14150606 25.83721011 -3 7 C-2.68160156 6.28070313 -2.36320313 5.56140625 -2.03515625 4.8203125 C-1.33844291 3.22140356 -0.66583166 1.61201349 0 0 Z " fill="#6C24B7" transform="translate(776,462)"/>
<path d="M0 0 C22.77 0 45.54 0 69 0 C69 8.25 69 16.5 69 25 C54.48 25 39.96 25 25 25 C25 30.94 25 36.88 25 43 C37.87 43 50.74 43 64 43 C64 50.59 64 58.18 64 66 C51.13 66 38.26 66 25 66 C25 71.94 25 77.88 25 84 C39.52 84 54.04 84 69 84 C69 92.58 69 101.16 69 110 C46.23 110 23.46 110 0 110 C0 73.7 0 37.4 0 0 Z " fill="#000000" transform="translate(408,489)"/>
<path d="M0 0 C22.11 0 44.22 0 67 0 C67 7.92 67 15.84 67 24 C52.81 24 38.62 24 24 24 C24 29.61 24 35.22 24 41 C36.87 41 49.74 41 63 41 C63 49.25 63 57.5 63 66 C50.13 66 37.26 66 24 66 C24 80.19 24 94.38 24 109 C16.08 109 8.16 109 0 109 C0 73.03 0 37.06 0 0 Z " fill="#000000" transform="translate(180,490)"/>
<path d="M0 0 C4.43015609 3.97893649 7.83297442 8.03520257 9 14 C9 15.98 9 17.96 9 20 C1.08 20 -6.84 20 -15 20 C-15.33 18.35 -15.66 16.7 -16 15 C-21.28 15 -26.56 15 -32 15 C-31.34 16.65 -30.68 18.3 -30 20 C-27.33196961 21.15955485 -27.33196961 21.15955485 -24.125 21.625 C-22.95839844 21.85574219 -21.79179688 22.08648438 -20.58984375 22.32421875 C-18.81287109 22.65873047 -18.81287109 22.65873047 -17 23 C-6.37623289 25.31396131 2.76154799 27.44364517 9 37 C11.91340348 43.02635513 12.13679475 49.90890033 10.34765625 56.34765625 C7.05007402 63.69291453 0.89523656 68.21637875 -6.4296875 71.18359375 C-18.52150192 75.02430684 -31.58992399 75.13367102 -43.421875 70.359375 C-48.98159939 67.42788396 -54.20512004 63.27725992 -57.0625 57.5625 C-58 54 -58 54 -58 45 C-50.08 45 -42.16 45 -34 45 C-33.01 46.98 -32.02 48.96 -31 51 C-28.55028376 52.22485812 -26.85765539 52.16722808 -24.125 52.1875 C-23.26132812 52.20167969 -22.39765625 52.21585938 -21.5078125 52.23046875 C-18.8758712 51.98859252 -17.26019456 51.32983541 -15 50 C-15.495 48.02 -15.495 48.02 -16 46 C-16.76441406 45.82984375 -17.52882813 45.6596875 -18.31640625 45.484375 C-21.882863 44.67752317 -25.44184655 43.84272055 -29 43 C-29.64646484 42.85014648 -30.29292969 42.70029297 -30.95898438 42.54589844 C-48.70736717 38.38694904 -48.70736717 38.38694904 -53.328125 32.23046875 C-57.45740058 25.32410994 -58.29920628 17.67763376 -56.50390625 9.83203125 C-53.88296113 3.12418864 -48.67393427 -0.67741498 -42.52734375 -3.9296875 C-29.17763452 -9.58319651 -11.98843432 -8.09423201 0 0 Z " fill="#212121" transform="translate(889,525)"/>
<path d="M0 0 C6.6 0 13.2 0 20 0 C20.09081899 9.42386774 20.16401234 18.8474389 20.20724869 28.27164745 C20.228013 32.64895742 20.25612313 37.02594924 20.30175781 41.40307617 C20.34561827 45.63712446 20.3692207 49.87086917 20.37950897 54.10512733 C20.38682899 55.71047041 20.4011205 57.31579923 20.42292023 58.92101097 C20.61679069 73.80545614 18.40607515 87.84848045 7.9296875 99.25390625 C-1.33082428 108.01428586 -11.49373236 110.60073311 -24 111 C-34.67164604 110.64269042 -44.72008616 107.11916139 -52.8125 100 C-62.17824058 89.69309432 -65.36712209 76.50296289 -65.125 63 C-65.11597656 62.03449219 -65.10695313 61.06898438 -65.09765625 60.07421875 C-65.07430635 57.71587901 -65.04156047 55.35807714 -65 53 C-66.98 53.495 -66.98 53.495 -69 54 C-67.66446049 51.32892097 -66.32983771 51.09516339 -63.625 49.875 C-58.3520685 47.34490463 -53.87744426 44.13025191 -49.25 40.57421875 C-47 39 -47 39 -45 39 C-44.98018066 39.66942627 -44.96036133 40.33885254 -44.93994141 41.02856445 C-44.84344834 44.12353971 -44.73428366 47.21795099 -44.625 50.3125 C-44.5940625 51.36501953 -44.563125 52.41753906 -44.53125 53.50195312 C-44.09486661 65.32067005 -43.38726311 75.77651287 -34.5625 84.375 C-29.41949461 87.63641805 -24.06293029 89.03539479 -18 88 C-11.64158553 85.76880938 -7.0516392 83.23043003 -4 77 C-1.42656007 70.63412228 -0.88915964 64.14651709 -0.79467773 57.33032227 C-0.77473251 56.04952286 -0.75478729 54.76872345 -0.73423767 53.44911194 C-0.71725987 52.07154456 -0.70038083 50.69397596 -0.68359375 49.31640625 C-0.66299312 47.8915094 -0.6419959 46.46661823 -0.62062073 45.04173279 C-0.56572079 41.31166214 -0.51617162 37.58153931 -0.46777344 33.85137939 C-0.41732247 30.03694069 -0.36176022 26.22257672 -0.30664062 22.40820312 C-0.19945208 14.93886391 -0.09839478 7.46946118 0 0 Z " fill="#000000" transform="translate(793,488)"/>
<path d="M0 0 C8.85806952 7.62083544 14.97188724 17.2101248 16.12890625 29.01171875 C16.12890625 32.64171875 16.12890625 36.27171875 16.12890625 40.01171875 C-1.69109375 40.01171875 -19.51109375 40.01171875 -37.87109375 40.01171875 C-31.30038398 47.67754681 -27.53626768 50.28310346 -17.7265625 51.35546875 C-10.7020987 51.5593226 -4.3289406 50.45780056 2.44921875 48.66796875 C5.12890625 48.01171875 5.12890625 48.01171875 8.12890625 48.01171875 C8.96777681 50.44743934 9.80017154 52.88505092 10.62890625 55.32421875 C10.98662109 56.3596582 10.98662109 56.3596582 11.3515625 57.41601562 C12.36098888 60.40103364 13.12890625 62.83830789 13.12890625 66.01171875 C-2.71927228 71.66869801 -20.81366125 76.57891097 -36.99609375 69.38671875 C-47.05909027 63.70531863 -54.83525667 56.33583836 -58.74609375 45.32421875 C-61.52806069 34.67657148 -60.75500562 23.44343474 -55.65234375 13.6796875 C-49.95429559 4.38870342 -42.35259606 -1.91671518 -31.87109375 -4.98828125 C-20.99711602 -7.51870374 -9.3420972 -6.46956119 0 0 Z M-36.7421875 19.1953125 C-38.14738363 21.24956785 -38.14738363 21.24956785 -38.87109375 25.01171875 C-27.65109375 25.01171875 -16.43109375 25.01171875 -4.87109375 25.01171875 C-7.23633731 17.91598808 -9.99280449 15.0432036 -16.49609375 11.63671875 C-24.87908132 9.43066939 -31.45167986 12.75156069 -36.7421875 19.1953125 Z " fill="#000000" transform="translate(627.87109375,525.98828125)"/>
<path d="M0 0 C8.938431 7.22643312 13.75049171 15.88060315 14.98828125 27.40625 C15.30633185 37.18212103 12.73672983 46.91163116 6.37890625 54.48046875 C-2.53921194 63.82631443 -11.22732338 67.48084313 -24.25 68.1875 C-35.6568046 67.60749299 -44.60069689 62.75005252 -52.33984375 54.51953125 C-54.99415598 51.27899056 -56.77683872 48.09422605 -58.25 44.1875 C-58.6625 43.15625 -59.075 42.125 -59.5 41.0625 C-61.78204699 29.27192387 -60.24957391 19.35914978 -54.4375 8.9375 C-40.82542935 -8.17481739 -18.38985286 -12.86944675 0 0 Z M-37.125 19.0625 C-40.59802516 24.16988993 -41.78855891 28.18326518 -40.78515625 34.23828125 C-39.1706377 40.11889989 -34.93985967 43.69505131 -30.25 47.1875 C-24.87563291 48.9789557 -20.18205434 48.89926628 -15.0625 46.5625 C-10.25876102 43.90531367 -7.01233553 40.47450659 -5.25 35.1875 C-4.45887714 28.82461186 -4.99710032 24.15642142 -8.75 18.87890625 C-12.5460921 14.59841698 -16.79684871 12.42800503 -22.4375 11.875 C-28.41597505 12.36503894 -33.09557719 14.55902745 -37.125 19.0625 Z " fill="#000000" transform="translate(312.25,530.8125)"/>
<path d="M0 0 C3.53776474 8.1066368 6.69349744 16.35017032 9.8125 24.625 C10.22169678 25.70458984 10.63089355 26.78417969 11.05249023 27.89648438 C11.43348877 28.91291016 11.8144873 29.92933594 12.20703125 30.9765625 C12.5522583 31.89518066 12.89748535 32.81379883 13.25317383 33.76025391 C14 36 14 36 14 38 C14.66 38 15.32 38 16 38 C16.56847656 36.22109375 16.56847656 36.22109375 17.1484375 34.40625 C19.17565331 28.32698474 21.52047234 22.37271115 23.87109375 16.41308594 C24.63392615 14.47734932 25.39136267 12.53955715 26.1484375 10.6015625 C26.62796875 9.38210938 27.1075 8.16265625 27.6015625 6.90625 C28.03807129 5.79572266 28.47458008 4.68519531 28.92431641 3.54101562 C30 1 30 1 31 0 C32.5756216 -0.0992724 34.15563044 -0.13079953 35.734375 -0.1328125 C37.18457031 -0.13474609 37.18457031 -0.13474609 38.6640625 -0.13671875 C40.19160156 -0.13091797 40.19160156 -0.13091797 41.75 -0.125 C43.25433594 -0.13080078 43.25433594 -0.13080078 44.7890625 -0.13671875 C45.76101563 -0.13542969 46.73296875 -0.13414062 47.734375 -0.1328125 C48.62350586 -0.13168457 49.51263672 -0.13055664 50.42871094 -0.12939453 C53.04094099 0.00206027 55.45222923 0.42294081 58 1 C56.29622777 6.84786864 53.60136829 12.12924604 50.90625 17.56640625 C50.40009155 18.59571762 49.89393311 19.62502899 49.37243652 20.68553162 C47.75187435 23.9796335 46.12622116 27.27118867 44.5 30.5625 C42.38350644 34.85452955 40.26938727 39.14772341 38.15625 43.44140625 C37.63949707 44.49010895 37.12274414 45.53881165 36.59033203 46.61929321 C32.65404253 54.62405758 28.79938822 62.66550111 25.00744629 70.73963928 C24.62407104 71.552509 24.2406958 72.36537872 23.84570312 73.20288086 C23.51155396 73.91552597 23.17740479 74.62817108 22.83312988 75.3624115 C22 77 22 77 21 78 C19.14712498 78.07226502 17.29166122 78.0838122 15.4375 78.0625 C14.42558594 78.05347656 13.41367187 78.04445313 12.37109375 78.03515625 C11.58863281 78.02355469 10.80617188 78.01195312 10 78 C5.26033181 68.00598597 0.52508177 58.00989634 -4.20518494 48.01142883 C-6.65554263 42.83398683 -9.11257292 37.65979544 -11.5765686 32.48883057 C-13.05762577 29.37859079 -14.53427075 26.26626947 -16.01000977 23.15350342 C-16.70887163 21.68205957 -17.40970332 20.2115496 -18.11254883 18.74200439 C-19.09188993 16.69367985 -20.06427986 14.64219094 -21.03515625 12.58984375 C-21.5856665 11.43347412 -22.13617676 10.27710449 -22.70336914 9.08569336 C-23.85540146 6.34411241 -24.55862771 3.92867122 -25 1 C-16.64380043 0.24524649 -8.39004715 -0.13605482 0 0 Z " fill="#000000" transform="translate(508,521)"/>
<path d="M0 0 C-1.9460698 3.39223177 -4.00454765 6.41653319 -6.5625 9.375 C-7.46162109 10.43847656 -7.46162109 10.43847656 -8.37890625 11.5234375 C-15.75427444 18.49211624 -24.63623213 23.14205481 -33.5625 27.8125 C-58.88915525 40.61331789 -58.88915525 40.61331789 -79.625 59.53125 C-80.07875 60.0159375 -80.5325 60.500625 -81 61 C-81.66 61 -82.32 61 -83 61 C-83.25652344 61.6909375 -83.51304687 62.381875 -83.77734375 63.09375 C-85.64585954 67.53520606 -88.08315028 71.64693687 -90.44140625 75.84375 C-91.83480207 78.66546385 -92.57859677 80.90586123 -93 84 C-93.33 84 -93.66 84 -94 84 C-94.7708527 74.27869093 -93.42495353 61.84990707 -89 53 C-98.64980862 58.84067364 -105.77428299 66.02094717 -111 76 C-112.12459432 78.04189015 -113.2495903 80.08355914 -114.375 82.125 C-115.25214516 83.74884309 -116.12795196 85.37341394 -117 87 C-117.33 87 -117.66 87 -118 87 C-117.63379732 78.88861071 -115.58459767 71.66964333 -113 64 C-114.98 64 -116.96 64 -119 64 C-119 57.07 -119 50.14 -119 43 C-116.628125 42.835 -114.25625 42.67 -111.8125 42.5 C-110.70612183 42.42168945 -110.70612183 42.42168945 -109.57739258 42.34179688 C-106.75723324 42.14985085 -104.01643345 41.99913147 -101.19140625 42.1484375 C-98.97086396 42.20560363 -98.97086396 42.20560363 -97.5078125 40.8203125 C-97.05148437 40.26085937 -96.59515625 39.70140625 -96.125 39.125 C-85.9543964 28.27781118 -71.18401241 21.4425856 -58 15 C-57.26894043 14.63632324 -56.53788086 14.27264648 -55.78466797 13.89794922 C-45.36004534 8.79974176 -34.63281476 5.64969164 -23.375 3 C-22.09391357 2.69682861 -20.81282715 2.39365723 -19.49291992 2.08129883 C-12.84642305 0.59581659 -6.80927454 -0.35449585 0 0 Z " fill="#F29E44" transform="translate(768,479)"/>
<path d="M0 0 C2.64956595 2.06077352 3.6544012 3.13433042 4.8125 6.1875 C5.4725 6.5175 6.1325 6.8475 6.8125 7.1875 C7.01875 6.61 7.225 6.0325 7.4375 5.4375 C10.10142862 1.07834408 14.19690717 -0.84245371 19 -2.125 C26.73606901 -3.58120123 36.91998265 -2.96403952 43.8125 1.1875 C44.76593045 3.57317193 44.96462767 4.75743577 44.09985352 7.20214844 C43.71756592 7.8934082 43.33527832 8.58466797 42.94140625 9.296875 C42.53212891 10.05097656 42.12285156 10.80507813 41.70117188 11.58203125 C41.26353516 12.35933594 40.82589844 13.13664063 40.375 13.9375 C39.94123047 14.73027344 39.50746094 15.52304687 39.06054688 16.33984375 C37.98857546 18.29530809 36.90571878 20.24385908 35.8125 22.1875 C35.16023438 21.95933594 34.50796875 21.73117187 33.8359375 21.49609375 C26.90702812 19.14779171 26.90702812 19.14779171 19.8125 20.1875 C15.95107126 22.38321438 13.1687619 24.41865171 10.8125 28.1875 C10.34659604 30.48042392 10.34659604 30.48042392 10.38012695 32.95605469 C10.36033279 33.89672791 10.34053864 34.83740112 10.32014465 35.80657959 C10.31055977 37.31771332 10.31055977 37.31771332 10.30078125 38.859375 C10.28283005 39.89692932 10.26487885 40.93448364 10.24638367 42.003479 C10.19223623 45.3147781 10.15837015 48.62593267 10.125 51.9375 C10.09183091 54.18361388 10.05734164 56.42970868 10.02148438 58.67578125 C9.93402359 64.17970883 9.87399122 69.68297575 9.8125 75.1875 C1.8925 75.1875 -6.0275 75.1875 -14.1875 75.1875 C-14.22488281 71.31257812 -14.26226562 67.43765625 -14.30078125 63.4453125 C-14.34695024 59.7055079 -14.39820082 55.96580525 -14.44995117 52.22607422 C-14.48327046 49.62066812 -14.51128026 47.01518862 -14.53393555 44.40966797 C-14.56735254 40.67123027 -14.61966246 36.93346959 -14.67578125 33.1953125 C-14.68217117 32.02445099 -14.6885611 30.85358948 -14.69514465 29.64724731 C-14.71493881 28.56627777 -14.73473297 27.48530823 -14.75512695 26.37158203 C-14.76623001 25.41671906 -14.77733307 24.46185608 -14.78877258 23.47805786 C-14.92035263 22.72217377 -15.05193268 21.96628967 -15.1875 21.1875 C-18.41862508 18.6327998 -18.41862508 18.6327998 -24.1875 19.1875 C-24.1875 12.2575 -24.1875 5.3275 -24.1875 -1.8125 C-16.25867526 -2.94518925 -7.36565157 -3.92217086 0 0 Z " fill="#000000" transform="translate(356.1875,523.8125)"/>
<path d="M0 0 C1 2 1 2 0.6875 5.875 C0.62225187 13.97881817 5.11650218 21.36311228 10.5 27.1875 C18.89617095 34.88399004 29.29392908 40.22560315 39.21289062 45.67529297 C45.17423843 48.99447999 50.6095752 52.80871631 56 57 C55.67 58.32 55.34 59.64 55 61 C50.71 61.99 46.42 62.98 42 64 C42.99 65.32 43.98 66.64 45 68 C44.6875 71.25 44.6875 71.25 44 74 C36.65276257 76.44907914 25.327028 71.43324874 18.5625 68.3125 C9.7649202 63.51597876 4.1676909 56.589765 -1.375 48.4375 C-1.79217285 47.82463135 -2.2093457 47.2117627 -2.63916016 46.58032227 C-7.6900481 38.83913068 -9.65849033 33.07671385 -7.9453125 23.87109375 C-2.79973298 2.79973298 -2.79973298 2.79973298 0 0 Z " fill="#A42D8C" transform="translate(688,577)"/>
<path d="M0 0 C8.88964577 1.26486146 17.38155158 3.31446719 26 5.8125 C27.18078125 6.14314453 28.3615625 6.47378906 29.578125 6.81445312 C37.30394579 9.03094686 44.65414015 11.73993834 52 15 C52 15.33 52 15.66 52 16 C51.05906494 15.92894043 50.11812988 15.85788086 49.14868164 15.78466797 C29.81762802 14.36711259 11.97496281 13.10055665 -7 18 C-6.95359375 18.78761719 -6.9071875 19.57523437 -6.859375 20.38671875 C-6.35478393 35.61455641 -11.61118281 49.96963824 -22.0234375 61.23046875 C-24.91085862 63.81545248 -28.06700287 65.67365305 -31.44140625 67.55859375 C-33.98797197 68.9932239 -36.39301853 70.54901588 -38.8125 72.1875 C-39.54339844 72.67734375 -40.27429688 73.1671875 -41.02734375 73.671875 C-42.6435159 74.7599909 -44.25931133 75.84866633 -45.875 76.9375 C-48 78 -48 78 -51 77 C-50.05125 76.113125 -49.1025 75.22625 -48.125 74.3125 C-40.3270085 66.48325403 -34.06236554 57.17883381 -27.6875 48.1875 C-27.19612549 47.49479004 -26.70475098 46.80208008 -26.19848633 46.08837891 C-22.34917389 40.60842315 -18.51067786 35.08703738 -15.5625 29.0625 C-14.22202474 26.43516849 -12.79144796 24.17122592 -11.125 21.75 C-6.51030783 14.94819566 -3.13047615 7.57904751 0 0 Z " fill="#41249F" transform="translate(776,462)"/>
<path d="M0 0 C-0.11593506 0.55872803 -0.23187012 1.11745605 -0.35131836 1.69311523 C-0.88427307 4.27372403 -1.41091316 6.85558459 -1.9375 9.4375 C-2.11990234 10.31599609 -2.30230469 11.19449219 -2.49023438 12.09960938 C-4.34036242 21.21569485 -5.20996232 29.70296185 -4.6875 39 C-4.64117432 39.90194092 -4.59484863 40.80388184 -4.54711914 41.7331543 C-4.06949869 50.21333893 -3.09840172 58.57892018 -2 67 C-7.61 67 -13.22 67 -19 67 C-19.33 52.15 -19.66 37.3 -20 22 C-22.64 27.28 -25.28 32.56 -28 38 C-29.1268155 33.49273801 -29.1268155 33.49273801 -27.19140625 29.98828125 C-26.77818115 29.23458252 -26.36495605 28.48088379 -25.93920898 27.7043457 C-25.48489502 26.91503662 -25.03058105 26.12572754 -24.5625 25.3125 C-24.10238525 24.50321045 -23.64227051 23.6939209 -23.16821289 22.86010742 C-19.01036332 15.71827926 -9.4490323 0 0 0 Z " fill="#030103" transform="translate(679,532)"/>
<path d="M0 0 C6 0 6 0 8.3359375 2.1875 C9.00882813 3.115625 9.68171875 4.04375 10.375 5 C11.06335938 5.928125 11.75171875 6.85625 12.4609375 7.8125 C12.96882812 8.534375 13.47671875 9.25625 14 10 C14.33 6.7 14.66 3.4 15 0 C16.98 0 18.96 0 21 0 C21 7.59 21 15.18 21 23 C19.02 23 17.04 23 15 23 C13.04072278 20.98679772 11.6472999 19.29898352 10.125 17 C9.7228125 16.42765625 9.320625 15.8553125 8.90625 15.265625 C7.9195939 13.85611629 6.95731894 12.42959628 6 11 C5.67 14.96 5.34 18.92 5 23 C3.35 23 1.7 23 0 23 C0 15.41 0 7.82 0 0 Z " fill="#000000" transform="translate(653,611)"/>
<path d="M0 0 C3.35144509 1.70400478 5.45234433 4.11898871 7.4375 7.3125 C8.22585395 11.07907999 8.17559955 14.31695076 7 18 C4.29991691 21.25394628 2.12432213 23.73254937 -2.171875 24.2734375 C-9.98876369 24.58137554 -9.98876369 24.58137554 -13.5625 21.625 C-17.30493501 17.59468538 -17.39421204 14.90510436 -17.35546875 9.55078125 C-16.7778449 5.4058541 -15.06536529 3.78021503 -12 1 C-7.92247878 -0.35917374 -4.25935674 -0.64689889 0 0 Z M-10 7 C-11.59152808 9.77443477 -11.59152808 9.77443477 -12 13 C-11.17020292 15.91078244 -11.17020292 15.91078244 -9 18 C-6.15372409 19.33550847 -6.15372409 19.33550847 -3 19 C0.06307631 17.02033737 0.06307631 17.02033737 2 14 C2.08312096 10.5920406 1.26381885 9.32537658 -0.875 6.6875 C-4.1630793 4.0763782 -6.73260576 4.68120409 -10 7 Z " fill="#000000" transform="translate(814,610)"/>
<path d="M0 0 C5.94 0 11.88 0 18 0 C18 1.65 18 3.3 18 5 C14.04 5 10.08 5 6 5 C6 6.32 6 7.64 6 9 C8.64 9 11.28 9 14 9 C14 10.65 14 12.3 14 14 C11.36 14 8.72 14 6 14 C6 15.32 6 16.64 6 18 C10.29 18 14.58 18 19 18 C19 19.65 19 21.3 19 23 C12.73 23 6.46 23 0 23 C0 15.41 0 7.82 0 0 Z " fill="#000000" transform="translate(879,611)"/>
<path d="M0 0 C2.31 0 4.62 0 7 0 C7.83986084 1.93467942 8.67168027 3.87285129 9.5 5.8125 C9.9640625 6.89144531 10.428125 7.97039063 10.90625 9.08203125 C12 12 12 12 12 15 C12.66 15 13.32 15 14 15 C14.29003906 14.00419922 14.29003906 14.00419922 14.5859375 12.98828125 C17.17223199 4.21792619 17.17223199 4.21792619 19 0 C21.31 0 23.62 0 26 0 C23.03 7.59 20.06 15.18 17 23 C14.36 23 11.72 23 9 23 C6.03 15.41 3.06 7.82 0 0 Z " fill="#000000" transform="translate(836,611)"/>
<path d="M0 0 C-1.56995533 3.31955728 -3.44823604 6.35307137 -5.4375 9.4375 C-8.06176308 13.49982569 -8.06176308 13.49982569 -10.28515625 17.78515625 C-12 20 -12 20 -19 21 C-19 14.07 -19 7.14 -19 0 C-5.33707865 -1.70786517 -5.33707865 -1.70786517 0 0 Z " fill="#010000" transform="translate(668,522)"/>
<path d="M0 0 C1.98 0 3.96 0 6 0 C6 5.94 6 11.88 6 18 C9.96 18 13.92 18 18 18 C18 19.65 18 21.3 18 23 C12.06 23 6.12 23 0 23 C0 15.41 0 7.82 0 0 Z " fill="#000000" transform="translate(764,611)"/>
<path d="M0 0 C1.98 0 3.96 0 6 0 C6 7.59 6 15.18 6 23 C4.02 23 2.04 23 0 23 C0 15.41 0 7.82 0 0 Z " fill="#000000" transform="translate(627,611)"/>
<path d="M0 0 C1.44268543 2.88537086 1.02257965 5.53108551 0.9375 8.7109375 C0.89379807 10.98808657 0.89379807 10.98808657 1.640625 13.01171875 C2.14695384 15.81303812 1.17454267 17.01004654 -0.25 19.4375 C-3.43011519 25.36367565 -4.73444307 31.43556648 -6 38 C-8.67552219 35.32447781 -8.70050455 33.75888495 -9 30 C-8.5423218 27.20900535 -8.01387318 24.60040621 -7.3125 21.875 C-7.12969482 21.13378906 -6.94688965 20.39257812 -6.75854492 19.62890625 C-2.41142938 2.41142938 -2.41142938 2.41142938 0 0 Z " fill="#7B258B" transform="translate(688,577)"/>
</svg>
